<svg width="200" height="72" viewBox="0 0 200 72" fill="none" xmlns="http://www.w3.org/2000/svg">
<path d="M25.6 7.69504C29.5603 5.40854 34.4397 5.40854 38.4 7.69504L53.3128 16.305C57.2731 18.5915 59.7128 22.8171 59.7128 27.3901V44.6099C59.7128 49.1829 57.2731 53.4085 53.3128 55.695L38.4 64.305C34.4397 66.5915 29.5603 66.5915 25.6 64.305L10.6872 55.695C6.72685 53.4085 4.28719 49.1829 4.28719 44.6099V27.3901C4.28719 22.8171 6.72685 18.5915 10.6872 16.305L25.6 7.69504Z" fill="#F5B400"/>
<path d="M43.3709 33.7176C41.4778 32.1892 39.153 30.9069 36.7881 30.6614C36.6174 28.8475 35.8317 27.1651 35.127 25.9843C34.7185 25.2969 34.2498 24.6222 33.7295 23.9775C36.4327 22.9139 39.6009 23.4564 41.7604 25.6158C43.9199 27.7753 44.469 31.0016 43.3709 33.7176Z" fill="black"/>
<path d="M46.9813 45.1844C47.3835 42.888 46.7331 40.3499 45.1997 38.2202C42.9385 35.0794 38.3233 31.7556 34.8471 32.5783C35.7429 29.0937 32.3952 24.4289 29.2286 22.1504C27.0989 20.617 24.5607 19.9666 22.2665 20.3667C20.4754 20.6778 18.9658 21.6222 18.0146 23.0221C17.0527 24.4371 16.8623 26.3145 17.4893 28.1728C17.8863 29.3507 18.5777 30.4325 19.4687 31.3235C19.9196 31.7744 20.422 32.1781 20.9651 32.5195C21.5038 32.861 22.0833 33.1401 22.6884 33.3462C26.2263 34.5502 30.4677 35.029 32.7253 34.6353C32.3058 36.8757 32.7826 41.1795 34.0039 44.7604C34.4161 45.9706 35.1227 47.0761 36.0244 47.9779C36.9262 48.8797 37.9994 49.5625 39.1773 49.9595C41.0356 50.5865 42.913 50.3961 44.3258 49.4363C45.7279 48.483 46.6701 46.9755 46.9813 45.1844ZM30.5587 31.4819C30.2124 31.4874 29.7864 31.4775 29.2808 31.4438C28.0307 31.3607 26.0831 31.1035 23.8932 30.3551C22.5022 29.8822 21.3545 28.7474 20.8946 27.3865C20.5952 26.4951 20.6509 25.6756 21.0558 25.0766C21.5207 24.3916 22.2272 23.9613 23.1561 23.8004C24.515 23.5633 26.0565 23.9764 27.3908 24.9332C27.8391 25.2571 28.2898 25.6435 28.7235 26.0771C29.5799 26.9336 30.3207 27.9403 30.8096 28.9054C31.3201 29.918 31.5185 30.8242 31.3782 31.439C31.1804 31.46 30.9072 31.4786 30.5587 31.4819ZM42.3319 46.4856C41.72 46.8991 40.8833 46.9591 39.9703 46.651C38.5857 46.1803 37.4251 45.011 36.9435 43.5942C35.7634 40.136 35.7247 37.0897 35.842 35.9757C36.4697 35.8269 37.4039 36.0275 38.4423 36.551C39.9503 37.3125 41.4598 38.6118 42.4814 40.0324C43.4554 41.384 43.8772 42.9556 43.6359 44.3403C43.4729 45.2885 43.0318 46.01 42.3319 46.4856Z" fill="black"/>
<path d="M32.2768 45.3402C32.0707 44.7394 31.8861 44.1129 31.7186 43.4735C30.2059 42.5743 28.7787 41.4731 27.4778 40.1723C26.0928 38.7873 24.9354 37.2609 24.0036 35.6384C23.3556 35.4709 22.7205 35.2776 22.1111 35.0716C21.4888 34.8611 20.8878 34.5862 20.319 34.2533C20.1135 34.627 19.9253 35.0051 19.7542 35.3833C20.9751 38.0628 22.6881 40.5696 24.8843 42.7657C27.0805 44.9619 29.3717 46.528 31.9243 47.7378C32.3239 47.5626 32.7192 47.3701 33.1101 47.156C32.7708 46.5764 32.4894 45.969 32.2768 45.3402Z" fill="black"/>
<path d="M23.155 44.4959C21.3428 42.6837 19.8677 40.6552 18.7344 38.4922C18.0594 41.7171 18.6575 44.752 20.6703 46.7648C22.6831 48.7776 25.6383 49.3604 28.8139 48.7262C26.78 47.6233 24.87 46.211 23.155 44.4959Z" fill="black"/>
<path d="M82.6152 40.3935C82.7196 40.3935 82.8219 40.412 82.9283 40.4529C83.0327 40.4939 83.1311 40.5615 83.2254 40.6598L84.9658 42.5253C84.203 43.541 83.2515 44.3049 82.1053 44.8229C80.9571 45.339 79.6021 45.597 78.0343 45.597C76.599 45.597 75.3102 45.3472 74.1741 44.8496C73.0359 44.352 72.0703 43.6618 71.2794 42.7854C70.4865 41.9069 69.8782 40.8645 69.4547 39.6604C69.0311 38.4543 68.8203 37.1457 68.8203 35.7348C68.8203 34.3239 69.0492 32.9723 69.5068 31.7682C69.9665 30.562 70.6109 29.5218 71.442 28.6494C72.271 27.775 73.2687 27.0972 74.427 26.6098C75.5873 26.1245 76.862 25.8828 78.2551 25.8828C78.9657 25.8828 79.6342 25.9463 80.2625 26.0753C80.8908 26.2043 81.477 26.3804 82.021 26.6057C82.567 26.8309 83.0689 27.1013 83.5265 27.4187C83.9862 27.7361 84.3917 28.0801 84.747 28.4508L83.2656 30.4781C83.1712 30.603 83.0588 30.7136 82.9303 30.816C82.7999 30.9184 82.6172 30.9675 82.3843 30.9675C82.2278 30.9675 82.0812 30.9327 81.9427 30.861C81.8042 30.7914 81.6556 30.7054 81.5011 30.603C81.3465 30.5006 81.1739 30.3921 80.9872 30.2713C80.8005 30.1525 80.5817 30.0439 80.3247 29.9416C80.0678 29.8392 79.7707 29.7532 79.4294 29.6815C79.0882 29.6119 78.6867 29.575 78.229 29.575C77.5003 29.575 76.8379 29.7122 76.2377 29.9846C75.6354 30.259 75.1155 30.6583 74.6799 31.1825C74.2423 31.7088 73.9051 32.3518 73.6682 33.1157C73.4293 33.8795 73.3109 34.7498 73.3109 35.7307C73.3109 36.7116 73.4434 37.5962 73.7063 38.3642C73.9713 39.1321 74.3306 39.7792 74.7843 40.3034C75.238 40.8297 75.7679 41.2291 76.3742 41.5014C76.9804 41.7758 77.6288 41.911 78.3213 41.911C78.7188 41.911 79.0842 41.8905 79.4114 41.8516C79.7406 41.8106 80.0477 41.7451 80.3348 41.6529C80.6218 41.5608 80.8868 41.4359 81.1397 41.2802C81.3907 41.1267 81.6456 40.9301 81.9046 40.6905C82.0089 40.6024 82.1214 40.5308 82.2418 40.4734C82.3643 40.414 82.4887 40.3874 82.6172 40.3874L82.6152 40.3935Z" fill="#212121"/>
<path d="M90.4426 32.8568C90.9264 32.4329 91.4524 32.0929 92.0205 31.8308C92.5886 31.5687 93.2651 31.4397 94.052 31.4397C94.7867 31.4397 95.4391 31.5687 96.0072 31.8308C96.5733 32.0909 97.051 32.4534 97.4405 32.9162C97.8279 33.379 98.123 33.9319 98.3217 34.5708C98.5204 35.2117 98.6208 35.906 98.6208 36.6575V45.3832H94.598V36.6575C94.598 35.9858 94.4454 35.4616 94.1443 35.0868C93.8412 34.7121 93.3955 34.5257 92.8074 34.5257C92.3677 34.5257 91.9522 34.6199 91.5688 34.8104C91.1854 35.0008 90.81 35.2588 90.4467 35.5865V45.3852H86.4238V25.5625H90.4467V32.8588L90.4426 32.8568Z" fill="#212121"/>
<path d="M113.289 31.6525V45.3851H110.796C110.294 45.3851 109.965 45.1558 109.808 44.697L109.575 43.9025C109.314 44.1585 109.045 44.3899 108.77 44.5967C108.493 44.8056 108.196 44.9817 107.879 45.125C107.564 45.2704 107.223 45.3851 106.855 45.4691C106.488 45.553 106.086 45.594 105.655 45.594C104.918 45.594 104.268 45.465 103.7 45.2029C103.133 44.9428 102.656 44.5783 102.266 44.1093C101.877 43.6424 101.584 43.0895 101.385 42.4547C101.184 41.8178 101.086 41.1216 101.086 40.3618V31.6484H105.109V40.3618C105.109 41.0417 105.259 41.568 105.562 41.9387C105.866 42.3093 106.309 42.4957 106.897 42.4957C107.339 42.4957 107.753 42.4015 108.138 42.211C108.523 42.0206 108.897 41.7625 109.26 41.4349V31.6484H113.285L113.289 31.6525Z" fill="#212121"/>
<path d="M119.778 33.7722C120.193 33.0309 120.671 32.4473 121.211 32.0254C121.753 31.6016 122.373 31.3906 123.074 31.3906C123.678 31.3906 124.172 31.536 124.553 31.8268L124.294 34.8453C124.252 35.0398 124.18 35.1709 124.079 35.2425C123.981 35.3142 123.843 35.349 123.672 35.349C123.602 35.349 123.511 35.3449 123.399 35.3367C123.286 35.3286 123.17 35.3163 123.048 35.304C122.925 35.2896 122.803 35.2774 122.678 35.263C122.554 35.2487 122.439 35.2425 122.335 35.2425C121.747 35.2425 121.277 35.4023 120.926 35.7197C120.576 36.0371 120.279 36.4794 120.037 37.0446V45.3874H116.014V31.6548H118.402C118.601 31.6548 118.768 31.6732 118.902 31.708C119.037 31.7428 119.149 31.8002 119.24 31.8739C119.33 31.9476 119.398 32.048 119.446 32.1708C119.495 32.2958 119.537 32.4452 119.569 32.6214L119.776 33.7722H119.778Z" fill="#212121"/>
<path d="M135.574 34.9105C135.451 35.06 135.337 35.1787 135.222 35.2668C135.11 35.3569 134.951 35.3999 134.743 35.3999C134.534 35.3999 134.363 35.3528 134.203 35.2545C134.044 35.1583 133.863 35.0497 133.665 34.9289C133.466 34.8101 133.231 34.7036 132.964 34.6054C132.695 34.5071 132.364 34.46 131.964 34.46C131.47 34.46 131.045 34.5521 130.686 34.7364C130.326 34.9228 130.031 35.1869 129.796 35.531C129.561 35.8729 129.391 36.2968 129.278 36.7945C129.166 37.2921 129.108 37.8552 129.108 38.4818C129.108 39.7965 129.357 40.8082 129.855 41.5167C130.352 42.2232 131.037 42.5754 131.91 42.5754C132.378 42.5754 132.747 42.516 133.02 42.3972C133.291 42.2785 133.524 42.1454 133.715 42C133.905 41.8566 134.082 41.7215 134.241 41.5966C134.401 41.4716 134.602 41.4102 134.845 41.4102C135.164 41.4102 135.407 41.531 135.572 41.7686L136.74 43.2389C136.324 43.7242 135.889 44.1194 135.429 44.4246C134.971 44.7297 134.502 44.9672 134.022 45.1393C133.54 45.3113 133.058 45.43 132.573 45.4976C132.089 45.5631 131.617 45.5959 131.157 45.5959C130.334 45.5959 129.549 45.4362 128.803 45.1188C128.054 44.8014 127.395 44.3406 126.829 43.7345C126.263 43.1304 125.812 42.387 125.478 41.5024C125.143 40.6198 124.979 39.6143 124.979 38.4839C124.979 37.4948 125.123 36.5692 125.412 35.7112C125.701 34.8511 126.131 34.1036 126.699 33.4729C127.265 32.8422 127.968 32.3446 128.803 31.9821C129.638 31.6217 130.605 31.4395 131.703 31.4395C132.801 31.4395 133.685 31.6115 134.482 31.9555C135.279 32.2995 135.997 32.8012 136.636 33.4647L135.572 34.9105H135.574Z" fill="#212121"/>
<path d="M142.337 32.8568C142.821 32.4329 143.347 32.0929 143.915 31.8308C144.481 31.5708 145.16 31.4397 145.946 31.4397C146.681 31.4397 147.334 31.5687 147.902 31.8308C148.468 32.0909 148.946 32.4534 149.335 32.9162C149.722 33.379 150.018 33.9319 150.216 34.5708C150.415 35.2117 150.515 35.906 150.515 36.6575V45.3832H146.493V36.6575C146.493 35.9858 146.34 35.4616 146.039 35.0868C145.736 34.7121 145.29 34.5257 144.702 34.5257C144.262 34.5257 143.847 34.6199 143.463 34.8104C143.08 35.0008 142.705 35.2588 142.341 35.5865V45.3852H138.318V25.5625H142.341V32.8588L142.337 32.8568Z" fill="#212121"/>
<path d="M160.251 26.0898C161.557 26.0898 162.668 26.2148 163.585 26.4625C164.502 26.7083 165.251 27.0564 165.831 27.5069C166.411 27.9574 166.833 28.5042 167.098 29.1493C167.361 29.7923 167.493 30.5131 167.493 31.3076C167.493 31.7397 167.433 32.1575 167.313 32.5589C167.19 32.9602 167 33.337 166.741 33.6851C166.482 34.0333 166.148 34.3548 165.741 34.6456C165.335 34.9384 164.848 35.1882 164.274 35.4012C165.52 35.7104 166.442 36.2101 167.038 36.8981C167.636 37.5883 167.933 38.4791 167.933 39.5746C167.933 40.3958 167.776 41.1576 167.465 41.8641C167.154 42.5706 166.696 43.187 166.096 43.7112C165.496 44.2375 164.753 44.647 163.87 44.9419C162.989 45.2368 161.979 45.3842 160.847 45.3842H153.291V26.0898H160.249H160.251ZM157.681 29.4421V34.2094H159.966C160.449 34.2094 160.889 34.1746 161.276 34.1029C161.666 34.0312 161.997 33.9084 162.27 33.7302C162.541 33.5541 162.75 33.3124 162.892 33.0032C163.035 32.694 163.107 32.307 163.107 31.8401C163.107 31.3732 163.049 30.9984 162.939 30.6954C162.826 30.3902 162.652 30.1445 162.419 29.9602C162.186 29.7738 161.889 29.6428 161.529 29.5629C161.17 29.4851 160.744 29.4441 160.251 29.4441H157.681V29.4421ZM160.771 42.0074C161.353 42.0074 161.824 41.9316 162.192 41.7822C162.561 41.6306 162.848 41.4381 163.055 41.1985C163.262 40.961 163.406 40.6907 163.483 40.3917C163.561 40.0907 163.601 39.7856 163.601 39.4784C163.601 39.1241 163.555 38.8067 163.465 38.5241C163.374 38.2415 163.218 38.004 162.997 37.8094C162.776 37.6169 162.483 37.4654 162.12 37.3589C161.756 37.2524 161.297 37.1992 160.745 37.1992H157.681V42.0054H160.771V42.0074Z" fill="#212121"/>
<path d="M173.335 39.2538C173.466 40.4005 173.807 41.234 174.359 41.7521C174.913 42.2681 175.628 42.5262 176.501 42.5262C176.969 42.5262 177.37 42.4688 177.708 42.3541C178.045 42.2395 178.346 42.1125 178.611 41.9692C178.874 41.8279 179.117 41.7009 179.338 41.5862C179.558 41.4715 179.789 41.4122 180.032 41.4122C180.351 41.4122 180.596 41.533 180.761 41.7705L181.929 43.2408C181.514 43.7262 181.068 44.1214 180.586 44.4265C180.104 44.7317 179.613 44.9692 179.105 45.1412C178.599 45.3132 178.093 45.432 177.587 45.4996C177.081 45.5651 176.597 45.5979 176.14 45.5979C175.196 45.5979 174.313 45.4402 173.486 45.1269C172.659 44.8156 171.936 44.3487 171.316 43.7303C170.698 43.1118 170.21 42.3439 169.849 41.4265C169.489 40.507 169.311 39.4401 169.311 38.2217C169.311 37.3043 169.465 36.434 169.772 35.6128C170.077 34.7916 170.519 34.0728 171.095 33.4544C171.671 32.836 172.366 32.3465 173.185 31.9841C174.002 31.6237 174.925 31.4414 175.955 31.4414C176.848 31.4414 177.663 31.5827 178.404 31.8653C179.143 32.1479 179.779 32.5595 180.313 33.096C180.845 33.6346 181.259 34.294 181.558 35.0763C181.857 35.8565 182.007 36.7432 182.007 37.7323C182.007 38.0415 181.995 38.2913 181.967 38.4858C181.941 38.6804 181.893 38.836 181.825 38.9487C181.754 39.0633 181.662 39.1432 181.546 39.1882C181.429 39.2333 181.279 39.2538 181.098 39.2538H173.335ZM178.398 36.8722C178.398 36.5466 178.358 36.2292 178.276 35.9179C178.193 35.6087 178.059 35.3343 177.874 35.0906C177.687 34.849 177.443 34.6524 177.141 34.5008C176.838 34.3513 176.471 34.2756 176.037 34.2756C175.275 34.2756 174.678 34.4988 174.245 34.9452C173.811 35.3896 173.526 36.0326 173.388 36.8722H178.398Z" fill="#212121"/>
<path d="M187.328 39.2538C187.458 40.4005 187.799 41.234 188.351 41.7521C188.905 42.2681 189.62 42.5262 190.493 42.5262C190.961 42.5262 191.362 42.4688 191.7 42.3541C192.037 42.2395 192.338 42.1125 192.603 41.9692C192.866 41.8279 193.109 41.7009 193.33 41.5862C193.551 41.4715 193.781 41.4122 194.024 41.4122C194.343 41.4122 194.588 41.533 194.753 41.7705L195.921 43.2408C195.506 43.7262 195.06 44.1214 194.578 44.4265C194.097 44.7317 193.605 44.9692 193.097 45.1412C192.591 45.3132 192.085 45.432 191.579 45.4996C191.073 45.5651 190.59 45.5979 190.132 45.5979C189.188 45.5979 188.305 45.4402 187.478 45.1269C186.651 44.8156 185.928 44.3487 185.308 43.7303C184.69 43.1118 184.202 42.3439 183.841 41.4265C183.481 40.507 183.303 39.4401 183.303 38.2217C183.303 37.3043 183.457 36.434 183.764 35.6128C184.07 34.7916 184.511 34.0728 185.087 33.4544C185.663 32.836 186.358 32.3465 187.177 31.9841C187.994 31.6237 188.917 31.4414 189.947 31.4414C190.841 31.4414 191.656 31.5827 192.396 31.8653C193.135 32.1479 193.771 32.5595 194.305 33.096C194.837 33.6346 195.251 34.294 195.55 35.0763C195.849 35.8565 196 36.7432 196 37.7323C196 38.0415 195.988 38.2913 195.959 38.4858C195.933 38.6804 195.885 38.836 195.817 38.9487C195.747 39.0633 195.654 39.1432 195.538 39.1882C195.421 39.2333 195.271 39.2538 195.09 39.2538H187.328ZM192.39 36.8722C192.39 36.5466 192.35 36.2292 192.268 35.9179C192.185 35.6087 192.051 35.3343 191.866 35.0906C191.68 34.849 191.435 34.6524 191.134 34.5008C190.83 34.3513 190.463 34.2756 190.03 34.2756C189.267 34.2756 188.671 34.4988 188.237 34.9452C187.803 35.3896 187.518 36.0326 187.38 36.8722H192.39Z" fill="#212121"/>
</svg>
