<svg width="100" height="36" viewBox="0 0 100 36" fill="none" xmlns="http://www.w3.org/2000/svg">
<path d="M12.8 3.84752C14.7802 2.70427 17.2198 2.70427 19.2 3.84752L26.6564 8.15248C28.6366 9.29573 29.8564 11.4085 29.8564 13.695V22.305C29.8564 24.5915 28.6366 26.7043 26.6564 27.8475L19.2 32.1525C17.2198 33.2957 14.7802 33.2957 12.8 32.1525L5.34359 27.8475C3.36343 26.7043 2.14359 24.5915 2.14359 22.305V13.695C2.14359 11.4085 3.36343 9.29573 5.34359 8.15248L12.8 3.84752Z" fill="#F5B400"/>
<path d="M21.6855 16.8588C20.7389 16.0946 19.5765 15.4535 18.3941 15.3307C18.3087 14.4237 17.9158 13.5826 17.5635 12.9921C17.3593 12.6484 17.1249 12.3111 16.8648 11.9888C18.2164 11.4569 19.8004 11.7282 20.8802 12.8079C21.9599 13.8877 22.2345 15.5008 21.6855 16.8588Z" fill="black"/>
<path d="M23.4906 22.5912C23.6918 21.443 23.3666 20.174 22.5999 19.1091C21.4692 17.5387 19.1616 15.8768 17.4235 16.2882C17.8714 14.5459 16.1976 12.2135 14.6143 11.0742C13.5494 10.3075 12.2804 9.98232 11.1333 10.1824C10.2377 10.3379 9.4829 10.8101 9.00731 11.5101C8.52636 12.2176 8.43114 13.1563 8.74463 14.0854C8.94314 14.6744 9.28887 15.2153 9.73436 15.6608C9.9598 15.8862 10.211 16.0881 10.4825 16.2588C10.7519 16.4295 11.0416 16.5691 11.3442 16.6721C13.1131 17.2741 15.2338 17.5135 16.3627 17.3167C16.1529 18.4369 16.3913 20.5888 17.002 22.3792C17.208 22.9843 17.5613 23.5371 18.0122 23.988C18.4631 24.4389 18.9997 24.7803 19.5886 24.9788C20.5178 25.2923 21.4565 25.1971 22.1629 24.7172C22.8639 24.2405 23.3351 23.4868 23.4906 22.5912ZM15.2794 15.74C15.1062 15.7427 14.8932 15.7378 14.6404 15.7209C14.0153 15.6794 13.0416 15.5508 11.9466 15.1766C11.2511 14.9401 10.6772 14.3727 10.4473 13.6923C10.2976 13.2466 10.3255 12.8368 10.5279 12.5373C10.7603 12.1948 11.1136 11.9796 11.578 11.8992C12.2575 11.7807 13.0282 11.9872 13.6954 12.4656C13.9196 12.6276 14.1449 12.8208 14.3617 13.0376C14.79 13.4658 15.1603 13.9692 15.4048 14.4517C15.6601 14.958 15.7592 15.4111 15.6891 15.7185C15.5902 15.729 15.4536 15.7383 15.2794 15.74ZM21.1659 23.2418C20.86 23.4486 20.4417 23.4786 19.9852 23.3245C19.2929 23.0892 18.7125 22.5045 18.4717 21.7961C17.8817 20.067 17.8623 18.5439 17.921 17.9869C18.2349 17.9125 18.702 18.0128 19.2211 18.2745C19.9751 18.6553 20.7299 19.3049 21.2407 20.0152C21.7277 20.691 21.9386 21.4768 21.818 22.1692C21.7365 22.6433 21.5159 23.004 21.1659 23.2418Z" fill="black"/>
<path d="M16.1384 22.6696C16.0354 22.3692 15.943 22.056 15.8593 21.7363C15.103 21.2867 14.3893 20.7361 13.7389 20.0856C13.0464 19.3931 12.4677 18.63 12.0018 17.8187C11.6778 17.735 11.3602 17.6383 11.0555 17.5353C10.7444 17.4301 10.4439 17.2926 10.1595 17.1262C10.0567 17.313 9.96263 17.5021 9.87712 17.6911C10.4876 19.0309 11.3441 20.2843 12.4422 21.3824C13.5402 22.4805 14.6858 23.2635 15.9622 23.8684C16.162 23.7808 16.3596 23.6845 16.5551 23.5775C16.3854 23.2877 16.2447 22.984 16.1384 22.6696Z" fill="black"/>
<path d="M11.5775 22.247C10.6714 21.3409 9.93387 20.3266 9.36719 19.2451C9.02971 20.8576 9.32873 22.375 10.3351 23.3814C11.3415 24.3878 12.8192 24.6792 14.407 24.3621C13.39 23.8107 12.435 23.1045 11.5775 22.247Z" fill="black"/>
<path d="M41.3076 20.1958C41.3598 20.1958 41.411 20.205 41.4642 20.2255C41.5164 20.246 41.5655 20.2798 41.6127 20.3289L42.4829 21.2617C42.1015 21.7695 41.6258 22.1514 41.0527 22.4105C40.4785 22.6685 39.801 22.7975 39.0171 22.7975C38.2995 22.7975 37.6551 22.6726 37.087 22.4238C36.5179 22.175 36.0351 21.8299 35.6397 21.3917C35.2432 20.9525 34.9391 20.4313 34.7273 19.8292C34.5155 19.2262 34.4102 18.5719 34.4102 17.8664C34.4102 17.161 34.5246 16.4852 34.7534 15.8831C34.9833 15.28 35.3055 14.7599 35.721 14.3237C36.1355 13.8865 36.6344 13.5476 37.2135 13.3039C37.7936 13.0613 38.431 12.9404 39.1276 12.9404C39.4829 12.9404 39.8171 12.9722 40.1313 13.0367C40.4454 13.1012 40.7385 13.1892 41.0105 13.3019C41.2835 13.4145 41.5344 13.5497 41.7633 13.7084C41.9931 13.8671 42.1959 14.0391 42.3735 14.2244L41.6328 15.2381C41.5856 15.3005 41.5294 15.3558 41.4652 15.407C41.3999 15.4582 41.3086 15.4828 41.1922 15.4828C41.1139 15.4828 41.0406 15.4654 40.9714 15.4295C40.9021 15.3947 40.8278 15.3517 40.7505 15.3005C40.6733 15.2493 40.5869 15.1951 40.4936 15.1347C40.4002 15.0753 40.2908 15.021 40.1624 14.9698C40.0339 14.9186 39.8853 14.8756 39.7147 14.8398C39.5441 14.805 39.3433 14.7865 39.1145 14.7865C38.7502 14.7865 38.4189 14.8551 38.1188 14.9913C37.8177 15.1285 37.5578 15.3282 37.34 15.5903C37.1212 15.8534 36.9525 16.1749 36.8341 16.5569C36.7147 16.9388 36.6554 17.3739 36.6554 17.8644C36.6554 18.3548 36.7217 18.7971 36.8532 19.1811C36.9857 19.5651 37.1653 19.8886 37.3922 20.1507C37.619 20.4139 37.884 20.6135 38.1871 20.7497C38.4902 20.8869 38.8144 20.9545 39.1607 20.9545C39.3594 20.9545 39.5421 20.9443 39.7057 20.9248C39.8703 20.9043 40.0239 20.8716 40.1674 20.8255C40.3109 20.7794 40.4434 20.717 40.5699 20.6391C40.6953 20.5624 40.8228 20.4641 40.9523 20.3443C41.0045 20.3002 41.0607 20.2644 41.1209 20.2357C41.1821 20.206 41.2444 20.1927 41.3086 20.1927L41.3076 20.1958Z" fill="#212121"/>
<path d="M45.2213 16.4279C45.4632 16.216 45.7262 16.046 46.0102 15.9149C46.2943 15.7839 46.6325 15.7194 47.026 15.7194C47.3933 15.7194 47.7195 15.7839 48.0036 15.9149C48.2866 16.045 48.5255 16.2262 48.7202 16.4576C48.9139 16.689 49.0615 16.9654 49.1608 17.2849C49.2602 17.6054 49.3104 17.9525 49.3104 18.3283V22.6911H47.299V18.3283C47.299 17.9924 47.2227 17.7303 47.0721 17.5429C46.9206 17.3556 46.6978 17.2624 46.4037 17.2624C46.1839 17.2624 45.9761 17.3095 45.7844 17.4047C45.5927 17.4999 45.405 17.6289 45.2233 17.7928V22.6921H43.2119V12.7808H45.2233V16.4289L45.2213 16.4279Z" fill="#212121"/>
<path d="M56.6445 15.8258V22.6921H55.3979C55.1469 22.6921 54.9823 22.5774 54.9041 22.348L54.7876 21.9508C54.6571 22.0787 54.5226 22.1944 54.3851 22.2979C54.2466 22.4023 54.0981 22.4904 53.9395 22.562C53.7819 22.6347 53.6113 22.6921 53.4276 22.734C53.2439 22.776 53.0432 22.7965 52.8274 22.7965C52.459 22.7965 52.1338 22.732 51.8498 22.6009C51.5667 22.4709 51.3279 22.2886 51.1331 22.0542C50.9384 21.8207 50.7919 21.5443 50.6925 21.2269C50.5921 20.9084 50.543 20.5603 50.543 20.1804V15.8237H52.5544V20.1804C52.5544 20.5204 52.6297 20.7835 52.7812 20.9688C52.9328 21.1542 53.1546 21.2473 53.4487 21.2473C53.6695 21.2473 53.8763 21.2002 54.069 21.105C54.2617 21.0098 54.4484 20.8808 54.63 20.717V15.8237H56.6425L56.6445 15.8258Z" fill="#212121"/>
<path d="M59.8888 16.8856C60.0965 16.515 60.3354 16.2232 60.6054 16.0122C60.8764 15.8003 61.1866 15.6948 61.5369 15.6948C61.839 15.6948 62.0859 15.7675 62.2766 15.9129L62.1471 17.4221C62.126 17.5194 62.0899 17.5849 62.0397 17.6208C61.9905 17.6566 61.9213 17.674 61.836 17.674C61.8008 17.674 61.7557 17.672 61.6994 17.6679C61.6432 17.6638 61.585 17.6576 61.5238 17.6515C61.4626 17.6443 61.4014 17.6382 61.3391 17.631C61.2769 17.6239 61.2197 17.6208 61.1675 17.6208C60.8734 17.6208 60.6385 17.7006 60.4629 17.8594C60.2882 18.0181 60.1397 18.2392 60.0183 18.5218V22.6932H58.0068V15.8269H59.2012C59.3006 15.8269 59.3839 15.8361 59.4512 15.8535C59.5184 15.8709 59.5746 15.8996 59.6198 15.9365C59.665 15.9733 59.6991 16.0235 59.7232 16.0849C59.7473 16.1474 59.7683 16.2221 59.7844 16.3102L59.8878 16.8856H59.8888Z" fill="#212121"/>
<path d="M67.7868 17.4548C67.7256 17.5295 67.6684 17.5889 67.6111 17.6329C67.5549 17.678 67.4756 17.6995 67.3713 17.6995C67.2669 17.6995 67.1816 17.6759 67.1013 17.6268C67.022 17.5786 66.9316 17.5244 66.8323 17.464C66.7329 17.4046 66.6155 17.3513 66.482 17.3022C66.3475 17.253 66.1819 17.2295 65.9821 17.2295C65.7352 17.2295 65.5224 17.2756 65.3428 17.3677C65.1631 17.4609 65.0156 17.593 64.8981 17.765C64.7807 17.936 64.6954 18.1479 64.6392 18.3967C64.583 18.6455 64.5539 18.9271 64.5539 19.2404C64.5539 19.8978 64.6783 20.4036 64.9273 20.7579C65.1762 21.1111 65.5184 21.2872 65.955 21.2872C66.1889 21.2872 66.3736 21.2575 66.5101 21.1981C66.6456 21.1387 66.762 21.0722 66.8574 20.9995C66.9527 20.9278 67.041 20.8602 67.1203 20.7978C67.2006 20.7353 67.301 20.7046 67.4225 20.7046C67.582 20.7046 67.7035 20.765 67.7858 20.8838L68.3699 21.619C68.1622 21.8616 67.9444 22.0592 67.7145 22.2118C67.4857 22.3644 67.2508 22.4831 67.0109 22.5691C66.77 22.6551 66.5292 22.7145 66.2863 22.7483C66.0444 22.7811 65.8085 22.7975 65.5787 22.7975C65.1671 22.7975 64.7747 22.7176 64.4013 22.5589C64.0269 22.4002 63.6977 22.1698 63.4147 21.8667C63.1316 21.5647 62.9058 21.193 62.7392 20.7507C62.5716 20.3094 62.4893 19.8067 62.4893 19.2415C62.4893 18.7469 62.5615 18.2841 62.7061 17.8551C62.8506 17.4251 63.0654 17.0513 63.3494 16.736C63.6325 16.4206 63.9838 16.1718 64.4013 15.9906C64.8188 15.8104 65.3026 15.7192 65.8517 15.7192C66.4007 15.7192 66.8423 15.8052 67.2408 15.9773C67.6393 16.1493 67.9986 16.4001 68.3178 16.7319L67.7858 17.4548H67.7868Z" fill="#212121"/>
<path d="M71.1686 16.4279C71.4105 16.216 71.6735 16.046 71.9575 15.9149C72.2405 15.7849 72.5798 15.7194 72.9732 15.7194C73.3406 15.7194 73.6668 15.7839 73.9508 15.9149C74.2339 16.045 74.4728 16.2262 74.6675 16.4576C74.8612 16.689 75.0088 16.9654 75.1081 17.2849C75.2075 17.6054 75.2577 17.9525 75.2577 18.3283V22.6911H73.2463V18.3283C73.2463 17.9924 73.17 17.7303 73.0194 17.5429C72.8679 17.3556 72.645 17.2624 72.3509 17.2624C72.1311 17.2624 71.9234 17.3095 71.7317 17.4047C71.54 17.4999 71.3523 17.6289 71.1706 17.7928V22.6921H69.1592V12.7808H71.1706V16.4289L71.1686 16.4279Z" fill="#212121"/>
<path d="M80.1253 13.0449C80.7787 13.0449 81.3338 13.1074 81.7925 13.2313C82.2512 13.3541 82.6256 13.5282 82.9156 13.7535C83.2057 13.9787 83.4165 14.2521 83.549 14.5746C83.6804 14.8961 83.7467 15.2565 83.7467 15.6538C83.7467 15.8699 83.7166 16.0787 83.6564 16.2794C83.5951 16.4801 83.4998 16.6685 83.3703 16.8426C83.2408 17.0166 83.0742 17.1774 82.8705 17.3228C82.6677 17.4692 82.4238 17.5941 82.1368 17.7006C82.7601 17.8552 83.2208 18.105 83.5189 18.4491C83.818 18.7941 83.9665 19.2395 83.9665 19.7873C83.9665 20.1979 83.8882 20.5788 83.7326 20.932C83.5771 21.2853 83.3482 21.5935 83.0481 21.8556C82.748 22.1187 82.3766 22.3235 81.935 22.471C81.4944 22.6184 80.9895 22.6921 80.4234 22.6921H76.6455V13.0449H80.1243H80.1253ZM78.8406 14.721V17.1047H79.9828C80.2247 17.1047 80.4445 17.0873 80.6382 17.0514C80.8329 17.0156 80.9986 16.9542 81.1351 16.8651C81.2706 16.777 81.3749 16.6562 81.4462 16.5016C81.5175 16.347 81.5536 16.1535 81.5536 15.92C81.5536 15.6866 81.5245 15.4992 81.4693 15.3477C81.4131 15.1951 81.3258 15.0722 81.2093 14.9801C81.0929 14.8869 80.9444 14.8214 80.7647 14.7815C80.585 14.7426 80.3722 14.7221 80.1253 14.7221H78.8406V14.721ZM80.3853 21.0037C80.6764 21.0037 80.9122 20.9658 81.0959 20.8911C81.2806 20.8153 81.4241 20.7191 81.5275 20.5993C81.6309 20.4805 81.7032 20.3453 81.7413 20.1959C81.7804 20.0453 81.8005 19.8928 81.8005 19.7392C81.8005 19.5621 81.7774 19.4034 81.7323 19.2621C81.6871 19.1208 81.6088 19.002 81.4984 18.9047C81.388 18.8085 81.2415 18.7327 81.0598 18.6795C80.8781 18.6262 80.6483 18.5996 80.3723 18.5996H78.8406V21.0027H80.3853V21.0037Z" fill="#212121"/>
<path d="M86.6677 19.6264C86.7329 20.1998 86.9036 20.6165 87.1796 20.8756C87.4566 21.1336 87.8139 21.2626 88.2505 21.2626C88.4844 21.2626 88.6851 21.2339 88.8538 21.1766C89.0224 21.1192 89.1729 21.0558 89.3054 20.9841C89.4369 20.9134 89.5584 20.85 89.6688 20.7926C89.7792 20.7353 89.8946 20.7056 90.016 20.7056C90.1756 20.7056 90.2981 20.766 90.3804 20.8848L90.9645 21.6199C90.7568 21.8626 90.5339 22.0602 90.2931 22.2128C90.0522 22.3653 89.8063 22.4841 89.5523 22.5701C89.2994 22.6561 89.0465 22.7155 88.7935 22.7493C88.5406 22.7821 88.2987 22.7984 88.0699 22.7984C87.5981 22.7984 87.1565 22.7196 86.743 22.563C86.3294 22.4073 85.9681 22.1739 85.658 21.8646C85.3488 21.5554 85.1049 21.1715 84.9243 20.7128C84.7446 20.253 84.6553 19.7196 84.6553 19.1104C84.6553 18.6516 84.7326 18.2165 84.8861 17.8059C85.0387 17.3953 85.2595 17.0359 85.5476 16.7267C85.8356 16.4175 86.1829 16.1728 86.5924 15.9915C87.0009 15.8113 87.4626 15.7202 87.9775 15.7202C88.4242 15.7202 88.8317 15.7909 89.202 15.9322C89.5714 16.0735 89.8896 16.2793 90.1566 16.5475C90.4225 16.8168 90.6293 17.1465 90.7789 17.5376C90.9284 17.9277 91.0037 18.3711 91.0037 18.8656C91.0037 19.0203 90.9977 19.1452 90.9836 19.2424C90.9706 19.3397 90.9465 19.4175 90.9123 19.4738C90.8772 19.5312 90.831 19.5711 90.7728 19.5936C90.7146 19.6162 90.6393 19.6264 90.549 19.6264H86.6677ZM89.199 18.4356C89.199 18.2728 89.179 18.1141 89.1378 17.9585C89.0966 17.8039 89.0294 17.6667 88.9371 17.5448C88.8437 17.424 88.7213 17.3257 88.5707 17.2499C88.4192 17.1752 88.2355 17.1373 88.0187 17.1373C87.6373 17.1373 87.3392 17.2489 87.1224 17.4721C86.9056 17.6943 86.763 18.0158 86.6938 18.4356H89.199Z" fill="#212121"/>
<path d="M93.6638 19.6264C93.729 20.1998 93.8997 20.6165 94.1757 20.8756C94.4527 21.1336 94.81 21.2626 95.2466 21.2626C95.4805 21.2626 95.6812 21.2339 95.8498 21.1766C96.0185 21.1192 96.169 21.0558 96.3015 20.9841C96.433 20.9134 96.5544 20.85 96.6648 20.7926C96.7753 20.7353 96.8907 20.7056 97.0121 20.7056C97.1717 20.7056 97.2942 20.766 97.3765 20.8848L97.9606 21.6199C97.7529 21.8626 97.53 22.0602 97.2892 22.2128C97.0483 22.3653 96.8024 22.4841 96.5484 22.5701C96.2955 22.6561 96.0426 22.7155 95.7896 22.7493C95.5367 22.7821 95.2948 22.7984 95.066 22.7984C94.5942 22.7984 94.1526 22.7196 93.7391 22.563C93.3255 22.4073 92.9642 22.1739 92.6541 21.8646C92.3449 21.5554 92.101 21.1715 91.9204 20.7128C91.7407 20.253 91.6514 19.7196 91.6514 19.1104C91.6514 18.6516 91.7287 18.2165 91.8822 17.8059C92.0348 17.3953 92.2556 17.0359 92.5437 16.7267C92.8317 16.4175 93.179 16.1728 93.5885 15.9915C93.997 15.8113 94.4587 15.7202 94.9736 15.7202C95.4203 15.7202 95.8278 15.7909 96.1981 15.9322C96.5675 16.0735 96.8857 16.2793 97.1527 16.5475C97.4186 16.8168 97.6254 17.1465 97.7749 17.5376C97.9245 17.9277 97.9998 18.3711 97.9998 18.8656C97.9998 19.0203 97.9938 19.1452 97.9797 19.2424C97.9667 19.3397 97.9426 19.4175 97.9084 19.4738C97.8733 19.5312 97.8271 19.5711 97.7689 19.5936C97.7107 19.6162 97.6354 19.6264 97.5451 19.6264H93.6638ZM96.1951 18.4356C96.1951 18.2728 96.175 18.1141 96.1339 17.9585C96.0927 17.8039 96.0255 17.6667 95.9332 17.5448C95.8398 17.424 95.7174 17.3257 95.5668 17.2499C95.4152 17.1752 95.2316 17.1373 95.0148 17.1373C94.6334 17.1373 94.3353 17.2489 94.1185 17.4721C93.9017 17.6943 93.7591 18.0158 93.6899 18.4356H96.1951Z" fill="#212121"/>
</svg>
