<svg width="17" height="16" viewBox="0 0 17 16" fill="none" xmlns="http://www.w3.org/2000/svg">
<path d="M6.83301 14.6663H10.1663M10.4997 10.2173C12.0763 9.46828 13.1663 7.86127 13.1663 5.99967C13.1663 3.42235 11.077 1.33301 8.49967 1.33301C5.92235 1.33301 3.83301 3.42235 3.83301 5.99967C3.83301 7.86127 4.92304 9.46828 6.49967 10.2173V10.6663C6.49967 11.2876 6.49967 11.5982 6.60117 11.8433C6.73649 12.17 6.99606 12.4295 7.32276 12.5648C7.56779 12.6663 7.87842 12.6663 8.49967 12.6663C9.12093 12.6663 9.43156 12.6663 9.67659 12.5648C10.0033 12.4295 10.2629 12.17 10.3982 11.8433C10.4997 11.5982 10.4997 11.2876 10.4997 10.6663V10.2173Z" stroke="#4F7A21" stroke-width="1.33333" stroke-linecap="round" stroke-linejoin="round"/>
</svg>
