<svg width="17" height="16" viewBox="0 0 17 16" fill="none" xmlns="http://www.w3.org/2000/svg">
<path d="M6.55967 5.99967C6.71641 5.55412 7.02578 5.17841 7.43298 4.9391C7.84018 4.69978 8.31894 4.6123 8.78446 4.69215C9.24998 4.772 9.67222 5.01402 9.97639 5.37536C10.2806 5.7367 10.447 6.19402 10.4463 6.66634C10.4463 7.99967 8.44634 8.66634 8.44634 8.66634M8.49967 11.333H8.50634M15.1663 7.99967C15.1663 11.6816 12.1816 14.6663 8.49967 14.6663C4.81778 14.6663 1.83301 11.6816 1.83301 7.99967C1.83301 4.31778 4.81778 1.33301 8.49967 1.33301C12.1816 1.33301 15.1663 4.31778 15.1663 7.99967Z" stroke="#A4A7AE" stroke-width="1.33333" stroke-linecap="round" stroke-linejoin="round"/>
</svg>
